<svg xmlns="http://www.w3.org/2000/svg" width="240" height="240" viewBox="0 0 63.5 63.5"><defs><clipPath clipPathUnits="userSpaceOnUse" id="prefix__a"><path stroke-width=".265" d="M-133.804 138.25h73.327v83.911h-73.327z"/></clipPath></defs><path d="M16.135 34.757s-.283 5.48.095 5.953c.378.473 2.74 7.938 6.52 14.458 0 0 2.362 2.834 4.441 2.456 2.08-.377 11.623-4.157 13.985-7.843 2.363-3.685 2.552-6.614 2.552-6.614l1.7-11.812-9.165-13.89-20.694-.567-1.323 14.08zM21.036 48.526s1.804 1.537 9.689-.067M22.306 49.93s1.136 3.006 7.283-.268" fill="none" stroke="#000" stroke-width=".265"/><path d="M40.137 28.804s3.59 4.063 1.606 8.41c0 0 3.024-6.331 5.575-5.67l.662-6.898-7.843 1.134z" fill="#333" stroke="#333" stroke-width=".265"/><path d="M43.728 43.167s1.228 1.04 2.646-1.04c1.417-2.078 3.78-5.67 2.645-9.26-1.134-3.59-4.44.473-4.913.756M47.98 33.434s-2.835 0-2.74 2.173M48.023 35.93s-.146 4.01-2.835 4.726M45.712 38.253s.85-.094 1.134 1.229M22.24 31.111s-.283 8.127-1.7 10.206c0 0-.72 1.718 3.155 2.474" fill="none" stroke="#000" stroke-width=".265"/><path d="M26.387 43.452s-1.12-1.105-2.22-.512" fill="none" stroke="#000" stroke-width=".22"/><path d="M21.9 32.302s-3.024-2.174-5.67-.945" fill="none" stroke="#000" stroke-width=".82" stroke-linecap="round" stroke-linejoin="round"/><path d="M27.168 31.794s3.764-2.057 7.057-.895" fill="none" stroke="#000" stroke-width=".89" stroke-linecap="round" stroke-linejoin="round"/><path d="M47.318 31.544s3.875-3.685 4.63-10.11c.757-6.426-8.031-13.702-12.378-15.12 0 0-3.969-1.7-6.804 1.323 0 0-5.102-1.89-10.016-.094-4.914 1.795-6.426 4.63-9.922 8.504 0 0-2.551 1.418-.567 12.568 0 0 1.04 5.764 3.874 6.142h0s-.944-8.883.473-10.772c0 0 .756-2.74 4.441-4.253 0 0 1.701 2.08-.094 5.859 0 0-2.268 3.874.85 4.63 0 0-2.646-1.7.095-4.063 0 0-.756 6.237 12 6.615 0 0-6.425-3.402-2.362-5.765 0 0 5.292 7.465 8.41 4.158 0 0 9.071-6.047 7.37.378z" stroke="#000" stroke-width=".265"/></svg>